<svg xmlns="http://www.w3.org/2000/svg" width="54" height="54" viewBox="0 0 54 54" fill="none">
    <path d="M22.9333 38.9333L41.7333 20.1333L38 16.4L22.9333 31.4667L15.3333 23.8667L11.6 27.6L22.9333 38.9333ZM26.6667 53.3333C22.9778 53.3333 19.5111 52.6329 16.2667 51.232C13.0222 49.8329 10.2 47.9333 7.8 45.5333C5.4 43.1333 3.50044 40.3111 2.10133 37.0667C0.700445 33.8222 0 30.3556 0 26.6667C0 22.9778 0.700445 19.5111 2.10133 16.2667C3.50044 13.0222 5.4 10.2 7.8 7.8C10.2 5.4 13.0222 3.49956 16.2667 2.09867C19.5111 0.699555 22.9778 0 26.6667 0C30.3556 0 33.8222 0.699555 37.0667 2.09867C40.3111 3.49956 43.1333 5.4 45.5333 7.8C47.9333 10.2 49.8329 13.0222 51.232 16.2667C52.6329 19.5111 53.3333 22.9778 53.3333 26.6667C53.3333 30.3556 52.6329 33.8222 51.232 37.0667C49.8329 40.3111 47.9333 43.1333 45.5333 45.5333C43.1333 47.9333 40.3111 49.8329 37.0667 51.232C33.8222 52.6329 30.3556 53.3333 26.6667 53.3333Z" fill="#4ECB71"/>
</svg>