<svg width="24" height="24" viewBox="0 0 24 24" fill="currentColor" xmlns="http://www.w3.org/2000/svg">
<g id="Component 1">
<path id="Vector" d="M12 20.975L10.975 20.05C9.2122 18.4313 7.75483 17.035 6.6029 15.861C5.45097 14.687 4.53333 13.6375 3.85 12.7125C3.16667 11.7875 2.6875 10.95 2.4125 10.2C2.1375 9.45002 2 8.69169 2 7.92502C2 6.42244 2.50417 5.16763 3.5125 4.1606C4.52083 3.15355 5.76667 2.65002 7.25 2.65002C8.2 2.65002 9.07917 2.87502 9.8875 3.32502C10.6958 3.77502 11.4 4.42502 12 5.27502C12.7 4.37502 13.4417 3.71252 14.225 3.28752C15.0083 2.86252 15.85 2.65002 16.75 2.65002C18.2333 2.65002 19.4792 3.15355 20.4875 4.1606C21.4958 5.16763 22 6.42244 22 7.92502C22 8.69169 21.8625 9.45002 21.5875 10.2C21.3125 10.95 20.8333 11.7875 20.15 12.7125C19.4667 13.6375 18.549 14.687 17.3971 15.861C16.2452 17.035 14.7878 18.4313 13.025 20.05L12 20.975ZM12 19C13.6873 17.4501 15.0757 16.121 16.1655 15.0126C17.2551 13.9042 18.1208 12.9334 18.7625 12.1C19.4042 11.2667 19.8542 10.5239 20.1125 9.87165C20.3708 9.21938 20.5 8.57172 20.5 7.92865C20.5 6.82623 20.15 5.92086 19.45 5.21252C18.75 4.50419 17.8519 4.15002 16.7556 4.15002C15.8969 4.15002 15.1021 4.41252 14.3712 4.93752C13.6404 5.46252 13.05 6.20002 12.6 7.15002H11.375C10.9417 6.21669 10.3596 5.48336 9.62875 4.95002C8.8979 4.41669 8.10311 4.15002 7.24437 4.15002C6.14813 4.15002 5.25 4.50419 4.55 5.21252C3.85 5.92086 3.5 6.82766 3.5 7.93292C3.5 8.57766 3.62917 9.22919 3.8875 9.88752C4.14583 10.5459 4.59583 11.2959 5.2375 12.1375C5.87917 12.9792 6.75 13.95 7.85 15.05C8.95 16.15 10.3333 17.4667 12 19Z" fill="#FF4848"/>
</g>
</svg>
