<svg width="24" height="25" viewBox="0 0 24 25" fill="none" xmlns="http://www.w3.org/2000/svg">
<path d="M12 21.325L10.975 20.4C9.20833 18.7833 7.75 17.3875 6.6 16.2125C5.45 15.0375 4.53333 13.9875 3.85 13.0625C3.16667 12.1375 2.6875 11.3 2.4125 10.55C2.1375 9.8 2 9.04167 2 8.275C2 6.775 2.50417 5.52083 3.5125 4.5125C4.52083 3.50417 5.76667 3 7.25 3C8.2 3 9.07917 3.225 9.8875 3.675C10.6958 4.125 11.4 4.775 12 5.625C12.7 4.725 13.4417 4.0625 14.225 3.6375C15.0083 3.2125 15.85 3 16.75 3C18.2333 3 19.4792 3.50417 20.4875 4.5125C21.4958 5.52083 22 6.775 22 8.275C22 9.04167 21.8625 9.8 21.5875 10.55C21.3125 11.3 20.8333 12.1375 20.15 13.0625C19.4667 13.9875 18.55 15.0375 17.4 16.2125C16.25 17.3875 14.7917 18.7833 13.025 20.4L12 21.325Z" fill="#FF4848"/>
</svg>
