<svg xmlns="http://www.w3.org/2000/svg" width="100" height="100" viewBox="0 0 100 100" fill="none">
  <g clip-path="url(#clip0_204_1360)">
    <path d="M70.3325 46.8773L72.3161 44.8722C72.3161 44.8722 75.3647 42.2539 78.8407 43.441C84.8923 45.507 91.8839 43.2701 96.7331 38.4148C98.1126 37.0353 99.788 34.2676 99.788 34.2676C99.9802 34.0051 100.047 33.6724 99.968 33.3551L99.5927 31.8109C99.5225 31.5211 99.3362 31.2738 99.08 31.1213C98.8235 30.9717 98.5153 30.932 98.2315 31.0144L86.3206 34.3287C85.878 34.4508 85.405 34.2859 85.1364 33.9168L79.6647 26.3789C79.4969 26.15 79.4266 25.8631 79.4663 25.5853L80.568 17.5775C80.626 17.1412 80.9374 16.7871 81.3616 16.6681L93.9409 13.1678C94.5085 13.009 94.8534 12.423 94.713 11.8463L94.2155 9.82303C94.1483 9.53611 93.9653 9.29197 93.7149 9.13943C93.7149 9.13943 92.7292 8.48631 92.012 8.11717C84.8678 4.42752 75.8714 5.57205 69.8807 11.5656C65.4557 15.9906 63.7223 22.0515 64.5341 27.807C65.1596 32.232 64.8667 34.5849 62.9563 36.6053C62.7823 36.7853 62.2331 37.3346 61.3846 38.1678L70.3325 46.8773Z" fill="#0D0D0D"/>
    <path d="M41.2858 57.6988C27.9344 70.6351 13.3713 84.71 13.3713 84.71C12.8739 85.1861 12.5901 85.8422 12.5809 86.5289C12.5717 87.2125 12.8434 87.8748 13.3256 88.36L19.5635 94.5978C20.0518 95.083 20.711 95.3516 21.3977 95.3426C22.0844 95.3365 22.7374 95.0496 23.2104 94.5553L50.4229 67.0254L41.2858 57.6988Z" fill="#0D0D0D"/>
    <path d="M97.9355 88.1584C98.4207 87.6732 98.6892 87.014 98.6803 86.3273C98.6742 85.6406 98.3873 84.9877 97.8929 84.5115L44.417 32.4699L35.8324 41.0576L88.0478 94.3535C88.524 94.851 89.1769 95.1348 89.8636 95.1439C90.5504 95.1531 91.2095 94.8814 91.6978 94.3963L97.9355 88.1584Z" fill="#0D0D0D"/>
    <path d="M49.6477 6.37128C43.2084 3.85976 32.7959 3.49648 26.7656 9.52382C22.017 14.2725 15.0713 21.2213 15.0713 21.2213C12.5963 23.6932 14.8944 26.1469 13.0662 27.9719C11.2383 29.7998 8.3176 27.9719 6.67288 29.6168L0.642603 35.6498C-0.215015 36.5043 -0.215015 37.8959 0.642603 38.7535L9.04417 47.1551C9.90178 48.0127 11.2934 48.0127 12.1508 47.1551L18.1811 41.1248C19.8291 39.4799 17.9979 36.5594 19.8291 34.7344C22.2918 32.2685 24.9805 32.6867 26.5338 34.2369L29.6375 37.3406L33.0006 38.2256L41.5852 29.641L40.5963 26.3816C37.8588 23.6412 37.4682 20.4703 39.1834 18.7553C41.8385 16.1002 46.2239 12.2642 50.3315 10.6193C52.9496 9.57265 52.1592 6.9664 49.6477 6.37128ZM38.0022 20.2109C37.9899 20.2201 39.1465 18.7889 39.168 18.7705L38.0022 20.2109Z" fill="#0D0D0D"/>
  </g>
  <defs>
    <clipPath id="clip0_204_1360">
      <rect width="100" height="100" fill="white"/>
    </clipPath>
  </defs>
</svg>