<svg xmlns="http://www.w3.org/2000/svg" width="100" height="100" viewBox="0 0 100 100" fill="none">
  <path d="M47.8125 84.6875C45.625 83.4375 43.75 81.875 42.1875 80C40.9375 78.75 39.0625 78.4375 37.8125 79.6875C36.5625 80.9375 36.25 82.8125 37.5 84.0625C39.6875 86.5625 41.875 88.75 44.6875 90.3125C45.9375 91.25 46.875 92.5 46.875 93.75C46.875 95.625 48.125 96.875 50 96.875C51.875 96.875 53.125 95.625 53.125 93.75C53.125 90 51.25 86.5625 47.8125 84.6875Z" fill="#0D0D0D"/>
  <path d="M15.625 15.625V68.75C15.625 74.0625 19.6875 78.125 25 78.125H28.125V71.875V12.5V6.25H25C19.6875 6.25 15.625 10.3125 15.625 15.625Z" fill="#0D0D0D"/>
  <path d="M65.625 39.0625V15.625C65.625 10.3125 61.5625 6.25 56.25 6.25H34.375V9.375V12.5V71.875V75V78.125H55.625C55.9375 80.9375 57.1875 83.75 59.375 85.9375C60 86.5625 60.9375 86.875 61.5625 86.875C62.1875 86.875 63.125 86.5625 63.75 85.9375C65 84.6875 65 82.8125 63.75 81.5625C61.875 79.6875 61.25 76.875 62.1875 74.375C62.5 73.125 62.1875 72.1875 61.5625 71.25L51.25 60.9375C48.125 57.8125 47.8125 52.5 50.3125 48.4375L60.3125 58.4375L63.4375 61.5625C64.6875 62.8125 66.5625 62.8125 67.8125 61.5625C69.0625 60.3125 69.0625 58.4375 67.8125 57.1875L65.625 55V46.25C71.5625 50.3125 75 56.875 75 64.0625V93.75C75 95.625 76.25 96.875 78.125 96.875C80 96.875 81.25 95.625 81.25 93.75V64.0625C81.25 53.4375 75.3125 43.75 65.625 39.0625ZM53.125 31.25C53.125 33.125 51.875 34.375 50 34.375C48.125 34.375 46.875 33.125 46.875 31.25V18.75C46.875 16.875 48.125 15.625 50 15.625C51.875 15.625 53.125 16.875 53.125 18.75V31.25Z" fill="#0D0D0D"/>
</svg>