<svg xmlns="http://www.w3.org/2000/svg" width="100" height="100" viewBox="0 0 100 100" fill="none">
  <g clip-path="url(#clip0_204_1368)">
    <path d="M61.1928 29.3709L72.3856 17.5449L56.9036 15.1552L50 0L43.0964 15.1552L27.6144 17.5449L38.8072 29.3709L36.1928 46.0376L50 38.174L63.8072 46.0376L61.1928 29.3709Z" fill="#0D0D0D"/>
    <path d="M100 71.589L84.518 69.1176L77.6144 53.9624L70.7108 69.1176L55.2288 71.589L66.4216 83.3333L63.8072 100L77.6144 92.1364L91.4216 100L88.8072 83.3333L100 71.589Z" fill="#0D0D0D"/>
    <path d="M29.2892 69.1176L22.3856 53.9624L15.482 69.1176L0 71.589L11.1928 83.3333L8.57843 100L22.3856 92.1364L36.1928 100L33.5784 83.3333L44.7712 71.589L29.2892 69.1176Z" fill="#0D0D0D"/>
  </g>
  <defs>
    <clipPath id="clip0_204_1368">
      <rect width="100" height="100" fill="white"/>
    </clipPath>
  </defs>
</svg>