<svg width="50" height="50" viewBox="0 0 50 50" fill="none" xmlns="http://www.w3.org/2000/svg">
<g id="plumbing-pipe-svgrepo-com 1" clip-path="url(#clip0_998_268)">
<path id="Vector" d="M29.5082 13.7808H20.9017C20.4772 13.7808 20.1332 14.1248 20.1332 14.5492C20.1332 14.9736 20.4772 15.3177 20.9017 15.3177H24.2315V21.5164C24.2315 21.9408 24.5755 22.2849 25 22.2849C25.4245 22.2849 25.7685 21.9408 25.7685 21.5164V15.3177H29.5082C29.9327 15.3177 30.2767 14.9736 30.2767 14.5492C30.2767 14.1248 29.9327 13.7808 29.5082 13.7808Z" fill="#666666"/>
<g id="Group">
<path id="Vector_2" d="M29.3033 11.7316C27.7497 11.7316 26.4857 12.9955 26.4857 14.5491C26.4857 16.1028 27.7498 17.3667 29.3033 17.3667C30.8568 17.3667 32.1209 16.1028 32.1209 14.5491C32.1209 12.9955 30.8568 11.7316 29.3033 11.7316Z" fill="#EB6836"/>
<path id="Vector_3" d="M20.6967 11.7316C19.1431 11.7316 17.8791 12.9955 17.8791 14.5491C17.8791 16.1028 19.1432 17.3667 20.6967 17.3667C22.2502 17.3667 23.5143 16.1028 23.5143 14.5491C23.5143 12.9955 22.2503 11.7316 20.6967 11.7316Z" fill="#EB6836"/>
</g>
<path id="SVGCleanerId_0" d="M47.3873 0.256165H41.1885C40.764 0.256165 40.42 0.600207 40.42 1.02462V18.4427C40.42 19.7139 39.3858 20.7481 38.1147 20.7481H11.834C6.32559 20.7481 1.84424 25.2294 1.84424 30.7378V48.7705C1.84424 49.1949 2.18818 49.539 2.6127 49.539H8.81143C9.23594 49.539 9.57988 49.1949 9.57988 48.7705V30.7377C9.57988 29.4665 10.6141 28.4323 11.8853 28.4323H38.166C43.6744 28.4323 48.1558 23.951 48.1558 18.4426V1.02462C48.1558 0.600207 47.8118 0.256165 47.3873 0.256165Z" fill="#F7D04A"/>
<g id="Group_2">
<path id="SVGCleanerId_0_1_" d="M47.3873 0.256165H41.1885C40.764 0.256165 40.42 0.600207 40.42 1.02462V18.4427C40.42 19.7139 39.3858 20.7481 38.1147 20.7481H11.834C6.32559 20.7481 1.84424 25.2294 1.84424 30.7378V48.7705C1.84424 49.1949 2.18818 49.539 2.6127 49.539H8.81143C9.23594 49.539 9.57988 49.1949 9.57988 48.7705V30.7377C9.57988 29.4665 10.6141 28.4323 11.8853 28.4323H38.166C43.6744 28.4323 48.1558 23.951 48.1558 18.4426V1.02462C48.1558 0.600207 47.8118 0.256165 47.3873 0.256165Z" fill="#F7D04A"/>
</g>
<g id="Group_3">
<path id="Vector_4" d="M21.7213 18.8525H19.2623C18.8378 18.8525 18.4939 19.1965 18.4939 19.6209V29.457C18.4939 29.8814 18.8378 30.2254 19.2623 30.2254H21.7213C22.1458 30.2254 22.4897 29.8814 22.4897 29.457V19.6209C22.4897 19.1965 22.1458 18.8525 21.7213 18.8525Z" fill="#EB6836"/>
<path id="Vector_5" d="M30.7377 18.8525H28.2787C27.8542 18.8525 27.5103 19.1965 27.5103 19.6209V29.457C27.5103 29.8814 27.8542 30.2254 28.2787 30.2254H30.7377C31.1622 30.2254 31.5062 29.8814 31.5062 29.457V19.6209C31.5062 19.1965 31.1622 18.8525 30.7377 18.8525Z" fill="#EB6836"/>
<path id="Vector_6" d="M49.2315 3.3299H39.3955C38.971 3.3299 38.627 3.67394 38.627 4.09835V6.55734C38.627 6.98175 38.971 7.32579 39.3955 7.32579H49.2315C49.6561 7.32579 50 6.98175 50 6.55734V4.09835C50 3.67404 49.6561 3.3299 49.2315 3.3299Z" fill="#EB6836"/>
<path id="Vector_7" d="M10.6045 42.4692H0.768457C0.343945 42.4692 0 42.8133 0 43.2377V45.6967C0 46.1211 0.343945 46.4651 0.768457 46.4651H10.6045C11.029 46.4651 11.3729 46.1211 11.3729 45.6967V43.2377C11.3729 42.8133 11.029 42.4692 10.6045 42.4692Z" fill="#EB6836"/>
</g>
<g id="Group_4">
<path id="Vector_8" d="M22.4897 19.6209C22.4897 19.1965 22.1458 18.8525 21.7213 18.8525H19.2623C18.8378 18.8525 18.4939 19.1965 18.4939 19.6209V20.748H22.4897V19.6209Z" fill="#FD9D7E"/>
<path id="Vector_9" d="M18.4939 29.4569C18.4939 29.8813 18.8378 30.2254 19.2623 30.2254H21.7213C22.1458 30.2254 22.4897 29.8813 22.4897 29.4569V28.4323H18.4939V29.4569Z" fill="#FD9D7E"/>
<path id="Vector_10" d="M27.5103 29.4569C27.5103 29.8813 27.8542 30.2254 28.2787 30.2254H30.7377C31.1622 30.2254 31.5062 29.8813 31.5062 29.4569V28.4323H27.5103V29.4569Z" fill="#FD9D7E"/>
<path id="Vector_11" d="M31.5062 19.6209C31.5062 19.1965 31.1622 18.8525 30.7377 18.8525H28.2787C27.8542 18.8525 27.5103 19.1965 27.5103 19.6209V20.748H31.5062V19.6209Z" fill="#FD9D7E"/>
<path id="Vector_12" d="M39.3955 3.3299C38.971 3.3299 38.627 3.67394 38.627 4.09835V6.55734C38.627 6.98175 38.971 7.32579 39.3955 7.32579H40.4201V3.3299H39.3955Z" fill="#FD9D7E"/>
<path id="Vector_13" d="M49.2315 3.3299H48.1558V7.32579H49.2315C49.6561 7.32579 50 6.98175 50 6.55734V4.09835C50 3.67404 49.6561 3.3299 49.2315 3.3299Z" fill="#FD9D7E"/>
<path id="Vector_14" d="M0.768457 42.4692C0.343945 42.4692 0 42.8133 0 43.2377V45.6967C0 46.1211 0.343945 46.4651 0.768457 46.4651H1.84424V42.4692H0.768457Z" fill="#FD9D7E"/>
<path id="Vector_15" d="M10.6045 46.4651C11.029 46.4651 11.3729 46.1211 11.3729 45.6967V43.2377C11.3729 42.8133 11.029 42.4692 10.6045 42.4692H9.57988V46.4651H10.6045Z" fill="#FD9D7E"/>
</g>
<path id="Vector_16" d="M25.6221 31.1063C25.3203 30.6902 24.6798 30.6902 24.3779 31.1063C23.7548 31.9654 18.289 39.6005 18.289 43.0328C18.289 46.7333 21.2995 49.7439 25 49.7439C28.7005 49.7439 31.711 46.7333 31.711 43.0328C31.711 39.6005 26.2453 31.9654 25.6221 31.1063Z" fill="#62C9CC"/>
<path id="Vector_17" d="M27.2028 47.9508C23.5023 47.9508 20.4918 44.9402 20.4918 41.2398C20.4918 38.6257 23.6618 33.5746 25.4486 30.935C25.1093 30.6904 24.6234 30.7678 24.3778 31.1063C23.7547 31.9654 18.2889 39.6005 18.2889 43.0328C18.2889 46.7333 21.2994 49.7439 24.9999 49.7439C27.1162 49.7439 29.0056 48.7582 30.2365 47.2231C29.3247 47.6873 28.2942 47.9508 27.2028 47.9508Z" fill="#50A9A9"/>
<g id="Group_5">
<path id="Vector_18" d="M25.8196 47.1312C26.8382 47.1312 27.6639 46.3055 27.6639 45.2869C27.6639 44.2684 26.8382 43.4427 25.8196 43.4427C24.8011 43.4427 23.9754 44.2684 23.9754 45.2869C23.9754 46.3055 24.8011 47.1312 25.8196 47.1312Z" fill="#D4F2E8"/>
<path id="Vector_19" d="M27.459 42.418C28.138 42.418 28.6885 41.8675 28.6885 41.1885C28.6885 40.5094 28.138 39.959 27.459 39.959C26.78 39.959 26.2295 40.5094 26.2295 41.1885C26.2295 41.8675 26.78 42.418 27.459 42.418Z" fill="#D4F2E8"/>
</g>
</g>
<defs>
<clipPath id="clip0_998_268">
<rect width="50" height="50" fill="white"/>
</clipPath>
</defs>
</svg>
